PathFileType	4	(X/Y/Z)	C:/Users/beibeiliu/ov580/test_trc\sequence.24_training_dense_left.trc
DataRate	CameraRate	NumFrames	NumMarkers	Units	OrigDataRate	OrigDataStartFrame	OrigNumFrames
120	120	10	19	mm	120	54	80
Frame#	Time	ThumbCMC			ThumbMCP			ThumbIP			ThumbTip			IndexMCP			IndexPIP			IndexTip			MiddleMCP			MiddlePIP			MiddleTip			RingMCP			RingPIP			RingTip			PinkyMCP			PinkyPIP			PinkyTip			BackHand1			BackHand2			BackHand3	
		X0	Y0	Z0	X1	Y1	Z1	X2	Y2	Z2	X3	Y3	Z3	X4	Y4	Z4	X5	Y5	Z5	X6	Y6	Z6	X7	Y7	Z7	X8	Y8	Z8	X9	Y9	Z9	X10	Y10	Z10	X11	Y11	Z11	X12	Y12	Z12	X13	Y13	Z13	X14	Y14	Z14	X15	Y15	Z15	X16	Y16	Z16	X17	Y17	Z17	X18	Y18	Z18	
53	0.441667	-298.791	25.2907	137.61	-301.708	48.0343	113.087	-303.046	61.2009	87.4137	-293.297	63.7439	67.3738	-296.908	12.9326	62.3155	-291.398	27.4072	35.6108	-279.806	45.4447	20.7472	-281.395	4.45266	50.685	-271.4	18.9653	25.6962	-256.887	44.6274	13.1375	-262.121	-1.53631	55.8268	-250.213	12.414	33.738	-242.55	38.6105	22.8057	-242.717	-7.76364	68.1918	-235.625	6.80395	43.8978	-228.601	30.9473	30.7906	-263.053	-23.2521	108.927	-263.904	-27.1371	135.348	-295.262	-9.58593	119.878	
54	0.45	-284.37	58.2823	134.616	-276.967	78.5942	116.566	-275.684	92.2579	89.7777	-267.541	91.8911	68.091	-291.613	48.656	63.0111	-282.574	61.7916	34.5824	-267.187	73.5243	20.492	-278.759	31.4347	52.6777	-268.774	47.4606	25.9222	-248.202	67.9343	11.7308	-262.046	19.9513	55.7754	-248.494	33.5849	29.5369	-234.819	56.763	21.4788	-247.857	10.714	62.5285	-238.065	22.7929	40.8107	-225.344	46.2779	30.6685	-270.363	1.93897	104.907	-267.359	-3.40272	134.659	-292.415	25.1412	122.51	
55	0.458333	-249.488	78.1398	136.075	-233.782	97.2219	114.495	-227.573	104.68	90.6743	-221.571	109.263	65.5842	-267.201	78.9115	66.7104	-255.518	87.703	38.8986	-236.225	93.0638	20.0929	-265.854	62.9266	54.1565	-252.606	72.7817	26.1268	-226.537	77.9449	11.676	-256.942	45.4674	57.009	-238.692	52.9677	26.6786	-215.871	65.6099	18.868	-246.214	26.211	60.9334	-235.549	36.365	39.6186	-208.185	51.9515	26.3675	-266.452	29.7524	105.17	-267.393	22.7529	131.483	-276.881	53.7531	125.972	
56	0.466667	-210.46	86.6844	135.862	-187.535	97.0222	117.247	-176.621	106.075	93.3771	-170.385	106.386	71.0999	-228.662	100.085	66.863	-216.06	105.208	41.7612	-198.149	103.327	22.5771	-235.111	83.3825	53.564	-218.989	85.7808	26.3409	-191.337	81.8457	9.70885	-233.877	62.0024	56.6448	-215.395	63.8523	26.8494	-187.117	68.2262	18.0982	-231.899	41.6156	63.3337	-220.081	45.7384	38.7369	-191.349	48.8805	22.9949	-249.832	47.1795	99.6844	-253.202	38.23	132.329	-243.559	76.5098	123.757	
57	0.475	-177.258	76.6742	138.762	-153.665	80.044	119.357	-140.564	85.181	92.7237	-134.216	84.9762	71.7409	-188.125	100.913	65.6285	-176.804	100.107	40.508	-157.307	92.9462	21.7006	-202.481	85.2846	53.8339	-189.446	84.5864	29.2517	-160.243	72.3636	9.02216	-206.029	67.7496	51.727	-189.947	65.5528	27.3903	-165.414	57.7905	17.4098	-212.711	44.3192	60.1206	-197.976	42.5356	33.6777	-174.952	38.9594	19.0575	-225.155	54.1999	102.348	-229.628	51.8614	131.527	-213.067	79.2336	125.662	
58	0.483333	-148.346	64.7088	140.928	-127.203	59.0367	119.571	-111.814	61.5374	98.502	-105.725	59.2654	71.9488	-156.053	86.6454	68.4367	-143.685	83.8733	42.2022	-124.146	66.6866	21.7879	-172.596	74.5861	56.4247	-155.374	69.3291	26.5953	-133.409	52.2763	10.0463	-182.924	57.7404	55.0194	-166.297	49.3935	28.1062	-144.479	36.6382	18.8721	-194.168	38.0629	59.6645	-180.088	33.5605	37.2734	-155.712	20.9945	21.8462	-200.295	57.2065	101.618	-209.597	50.0095	132.387	-185.294	74.4575	123.847	
59	0.491667	-127.039	42.144	145.991	-107.057	29.011	125.626	-91.714	24.8984	104.293	-86.4349	18.4836	79.4056	-121.208	58.8005	67.4536	-105.857	48.2759	45.1702	-99.4196	28.1116	31.3178	-143.567	50.1793	55.3907	-129.137	40.3667	33.382	-114.723	13.0849	18.578	-158.074	36.5112	54.9894	-141.704	21.9511	33.6451	-123.671	-3.09029	26.3865	-175.233	21.5649	66.0897	-160.11	8.40528	40.4908	-142.335	-7.06083	33.5535	-183.743	43.3934	106.462	-191.604	44.6285	132.853	-156.381	62.0549	126.604	
60	0.5	-112.612	24.3294	150.775	-95.0369	4.88485	134.529	-75.6271	-6.36757	112.355	-70.9243	-14.7056	93.4267	-103.844	28.4961	76.5191	-89.8385	12.9602	54.2061	-79.8461	-15.7388	42.2107	-119.371	23.0291	62.0681	-109.46	4.91695	42.0834	-91.5206	-26.8359	34.1878	-140.051	10.5952	61.0378	-127.339	-11.5272	42.4768	-110.436	-34.963	43.8425	-157.312	0.949157	70.8955	-147.042	-17.3953	50.661	-129.15	-39.6864	45.9311	-162.037	28.8301	105.061	-173.423	34.2733	136.297	-142.288	41.9319	126.705	
61	0.508333	-103.923	14.1415	156	-85.3466	-9.04734	146.274	-67.0938	-22.4711	131.039	-55.4043	-35.2816	111.171	-92.7031	8.85669	82.7015	-75.8029	-10.9345	64.88	-62.8987	-36.6971	60.8706	-105.483	-0.027317	68.4806	-92.7548	-24.0052	53.4454	-78.3142	-53.507	55.7688	-128.554	-11.4691	69.5611	-110.572	-34.1275	56.3365	-97.495	-62.3447	65.3969	-146.641	-18.8865	75.1217	-130.01	-39.0563	61.9932	-111.622	-59.2107	68.7343	-152.639	13.2842	107.591	-163.569	22.4513	134.664	-129.353	34.9912	131.583	
62	0.516667	-106.36	22.0117	160.344	-82.4284	-0.936995	151.614	-65.204	-12.4806	142.15	-49.7039	-26.5664	123.424	-84.1417	9.06309	86.9415	-66.2714	-8.26856	75.5516	-52.7646	-37.8067	76.4032	-98.0055	-2.51784	76.9918	-76.6997	-26.4252	66.9701	-64.6781	-54.9515	74.3666	-115.262	-17.6573	75.7926	-94.9689	-37.0877	69.4286	-78.5815	-62.6348	86.06	-134.511	-24.8645	83.4537	-115.062	-45.4049	74.1087	-93.4692	-64.5583	86.1324	-150.253	13.3819	112.631	-162.097	21.4983	135.142	-131.419	34.2073	130.217	
